<?xml version="1.0" standalone="no"?>
<!DOCTYPE svg PUBLIC "-//W3C//DTD SVG 20010904//EN"
 "http://www.w3.org/TR/2001/REC-SVG-20010904/DTD/svg10.dtd">
<svg version="1.0" xmlns="http://www.w3.org/2000/svg"
 width="700.000000pt" height="700.000000pt" viewBox="0 0 700.000000 700.000000"
 preserveAspectRatio="xMidYMid meet">
<metadata>
Created by potrace 1.14, written by Peter Selinger 2001-2017
</metadata>
<g transform="translate(0.000000,700.000000) scale(0.100000,-0.100000)"
fill="#000000" stroke="none">
<path d="M5917 6414 c-1 -1 -63 -4 -137 -8 -166 -7 -305 -19 -385 -31 -16 -3
-50 -7 -75 -10 -121 -13 -371 -55 -418 -69 -9 -3 -30 -8 -47 -10 -128 -23
-602 -165 -675 -203 -14 -7 -29 -13 -34 -13 -25 0 -397 -175 -506 -237 -143
-83 -242 -145 -414 -263 -28 -19 -99 -73 -106 -80 -3 -3 -25 -21 -50 -40 -25
-19 -47 -37 -50 -40 -3 -3 -39 -34 -80 -69 -174 -150 -415 -402 -566 -592
-279 -350 -568 -843 -754 -1284 -23 -55 -48 -113 -55 -130 -122 -276 -325
-921 -420 -1335 -51 -221 -124 -571 -161 -780 -15 -80 -28 -155 -29 -167 -2
-12 -6 -35 -10 -52 -3 -16 -8 -42 -10 -58 -2 -15 -15 -94 -29 -175 -14 -81
-26 -156 -26 -166 0 -18 11 -19 288 -18 l287 1 18 70 c9 39 19 79 21 90 22
112 114 377 181 521 94 201 199 351 354 504 162 162 334 267 550 340 65 21
134 42 152 45 19 3 52 10 74 15 22 5 65 12 95 15 151 17 382 69 537 121 423
141 804 378 1131 704 105 105 263 290 325 380 60 88 113 170 140 219 17 31 35
58 39 59 4 2 8 8 8 13 0 5 25 60 55 122 30 62 68 151 85 197 l30 85 -145 145
-145 145 173 175 c171 174 194 198 253 275 150 195 330 530 474 881 33 82 65
158 70 169 45 100 192 526 184 534 -5 5 -191 9 -197 5z m-667 -651 c0 -14
-166 -337 -209 -408 -97 -159 -162 -233 -528 -599 -205 -206 -373 -378 -373
-382 0 -4 94 -101 209 -216 l210 -209 -31 -52 c-47 -81 -125 -195 -186 -272
-72 -90 -254 -276 -335 -340 -34 -27 -64 -53 -67 -56 -3 -4 -63 -46 -133 -93
-262 -177 -625 -323 -892 -359 -426 -59 -702 -152 -978 -330 -48 -31 -87 -55
-87 -53 0 23 159 475 230 656 93 236 250 570 338 720 11 19 30 53 42 74 92
169 347 535 455 652 5 6 39 44 75 85 109 122 342 347 404 388 24 17 118 92
126 102 11 13 250 169 330 216 196 115 453 232 682 309 111 37 394 114 473
129 17 3 75 14 130 24 123 23 115 23 115 14z"/>
</g>
</svg>
