<?xml version="1.0" standalone="no"?>
<!DOCTYPE svg PUBLIC "-//W3C//DTD SVG 20010904//EN"
 "http://www.w3.org/TR/2001/REC-SVG-20010904/DTD/svg10.dtd">
<svg version="1.0" xmlns="http://www.w3.org/2000/svg"
 width="700.000000pt" height="700.000000pt" viewBox="0 0 700.000000 700.000000"
 preserveAspectRatio="xMidYMid meet">
<metadata>
Created by potrace 1.14, written by Peter Selinger 2001-2017
</metadata>
<g transform="translate(0.000000,700.000000) scale(0.100000,-0.100000)"
fill="#000000" stroke="none">
<path d="M2252 6112 c-101 -30 -182 -116 -201 -215 -11 -57 -14 -1226 -3
-1228 21 -3 2880 -4 2894 -1 15 4 17 50 15 620 l-2 617 -23 47 c-39 79 -98
132 -177 159 -59 20 -2435 21 -2503 1z m2078 -572 l45 0 -1 -133 c-1 -72 -2
-138 -3 -144 -1 -10 -183 -13 -874 -13 l-872 0 0 143 0 142 45 5 c33 4 1277 4
1660 0z"/>
<path d="M2334 4371 c-20 -3 -1243 -491 -1302 -518 -49 -23 -102 -81 -131
-143 l-25 -55 -1 -1415 c0 -1327 1 -1418 18 -1461 32 -84 96 -149 177 -179 29
-11 474 -14 2417 -15 2346 -2 2383 -1 2442 18 74 24 134 79 170 157 l25 55 1
1410 c1 1259 -1 1415 -15 1456 -28 81 -71 134 -137 168 -24 12 -325 135 -670
273 l-628 251 -1161 1 c-638 1 -1169 -1 -1180 -3z m2254 -591 c9 -5 166 -69
347 -141 182 -72 392 -156 468 -186 l137 -56 1 -58 c0 -76 0 -292 0 -366 l-1
-58 -1603 0 -1602 0 -1 -727 -1 -728 21 -1 c12 0 733 -1 1603 -1 l1582 0 3
-135 c2 -74 0 -140 -4 -146 -4 -7 -610 -10 -2025 -9 -1110 0 -2027 1 -2038 1
-20 1 -20 7 -18 1112 1 611 3 1113 6 1115 2 2 221 91 488 198 l484 195 1068 0
c688 1 1073 -3 1085 -9z"/>
</g>
</svg>
